<svg width="49" height="49" viewBox="0 0 49 49" fill="none" xmlns="http://www.w3.org/2000/svg">
<path d="M2 31C2 29.5998 2 28.8997 2.27247 28.365C2.51217 27.8945 2.89463 27.5123 3.36503 27.2725C3.8998 27 4.59987 27 6 27H8C9.40013 27 10.1002 27 10.635 27.2725C11.1054 27.5123 11.4878 27.8945 11.7275 28.365C12 28.8997 12 29.5998 12 31V43C12 44.4002 12 45.1003 11.7275 45.635C11.4878 46.1055 11.1054 46.4878 10.635 46.7275C10.1002 47 9.40013 47 8 47H6C4.59987 47 3.8998 47 3.36503 46.7275C2.89463 46.4878 2.51217 46.1055 2.27247 45.635C2 45.1003 2 44.4002 2 43V31Z" stroke="black" stroke-width="3" stroke-linecap="round" stroke-linejoin="round"/>
<path d="M19.5 6C19.5 4.59987 19.5 3.8998 19.7725 3.36503C20.0123 2.89463 20.3945 2.51217 20.865 2.27247C21.3997 2 22.0998 2 23.5 2H25.5C26.9002 2 27.6003 2 28.135 2.27247C28.6055 2.51217 28.9877 2.89463 29.2275 3.36503C29.5 3.8998 29.5 4.59987 29.5 6V43C29.5 44.4002 29.5 45.1003 29.2275 45.635C28.9877 46.1055 28.6055 46.4878 28.135 46.7275C27.6003 47 26.9002 47 25.5 47H23.5C22.0998 47 21.3997 47 20.865 46.7275C20.3945 46.4878 20.0123 46.1055 19.7725 45.635C19.5 45.1003 19.5 44.4002 19.5 43V6Z" stroke="black" stroke-width="3" stroke-linecap="round" stroke-linejoin="round"/>
<path d="M37 21C37 19.5998 37 18.8998 37.2725 18.365C37.5122 17.8946 37.8945 17.5122 38.365 17.2725C38.8997 17 39.5998 17 41 17H43C44.4002 17 45.1003 17 45.635 17.2725C46.1055 17.5122 46.4878 17.8946 46.7275 18.365C47 18.8998 47 19.5998 47 21V43C47 44.4002 47 45.1003 46.7275 45.635C46.4878 46.1055 46.1055 46.4878 45.635 46.7275C45.1003 47 44.4002 47 43 47H41C39.5998 47 38.8997 47 38.365 46.7275C37.8945 46.4878 37.5122 46.1055 37.2725 45.635C37 45.1003 37 44.4002 37 43V21Z" stroke="black" stroke-width="3" stroke-linecap="round" stroke-linejoin="round"/>
</svg>
