<svg width="31" height="28" viewBox="0 0 31 28" fill="none" xmlns="http://www.w3.org/2000/svg">
<path d="M9.05556 12.375H9.07167M15.5 12.375H15.5161M21.9444 12.375H21.9606M30 27L24.6442 24.2989C24.2382 24.0942 24.0352 23.9918 23.8224 23.9197C23.6335 23.8556 23.4391 23.8093 23.2417 23.7814C23.0194 23.75 22.7924 23.75 22.3385 23.75H6.15556C4.35093 23.75 3.44863 23.75 2.75937 23.3957C2.15306 23.0842 1.66012 22.587 1.35121 21.9755C1 21.2803 1 20.3702 1 18.55V6.2C1 4.37982 1 3.46974 1.35121 2.77453C1.66012 2.163 2.15306 1.66581 2.75937 1.35423C3.44863 1 4.35095 1 6.15556 1H24.8444C26.649 1 27.5514 1 28.2407 1.35423C28.8469 1.66581 29.3399 2.163 29.6488 2.77453C30 3.46974 30 4.37984 30 6.2V27Z" stroke="#495159" stroke-width="2" stroke-linecap="round" stroke-linejoin="round"/>
</svg>
