<svg width="20" height="21" viewBox="0 0 20 21" fill="none" xmlns="http://www.w3.org/2000/svg">
<path fill-rule="evenodd" clip-rule="evenodd" d="M20 10.5C20 16.2989 15.5228 21 10 21C4.47715 21 0 16.2989 0 10.5C0 4.70101 4.47715 0 10 0C15.5228 0 20 4.70101 20 10.5ZM14.0303 7.31815C14.3232 7.62569 14.3232 8.12431 14.0303 8.43182L9.0303 13.6818C8.7374 13.9894 8.2626 13.9894 7.96967 13.6818L5.96967 11.5818C5.67678 11.2743 5.67678 10.7757 5.96967 10.4682C6.26256 10.1606 6.73744 10.1606 7.03033 10.4682L8.5 12.0113L10.7348 9.66472L12.9697 7.31815C13.2626 7.01062 13.7374 7.01062 14.0303 7.31815Z" fill="#01957D"/>
</svg>
