<svg width="45" height="45" viewBox="0 0 45 45" fill="none" xmlns="http://www.w3.org/2000/svg">
<path d="M6.55556 13.3889V33.9326M6.55556 33.9326C7.27142 33.8889 8.15394 33.8889 9.28889 33.8889H35.7111C36.8461 33.8889 37.7285 33.8889 38.4444 33.9326M6.55556 33.9326C5.66219 33.9871 5.02837 34.1098 4.48738 34.3854C3.63018 34.8221 2.93327 35.5191 2.49653 36.3762C2 37.3507 2 38.6264 2 41.1778V43H43V41.1778C43 38.6264 43 37.3507 42.5034 36.3762C42.0668 35.5191 41.3698 34.8221 40.5127 34.3854C39.9717 34.1098 39.3378 33.9871 38.4444 33.9326M15.6667 13.3889V33.8889M29.3333 13.3889V33.8889M38.4444 13.3889V33.9326M2 7.69444V13.3889H43V7.69444L22.5 2L2 7.69444Z" stroke="black" stroke-width="3" stroke-linecap="round" stroke-linejoin="round"/>
</svg>
