<svg width="49" height="34" viewBox="0 0 49 34" fill="none" xmlns="http://www.w3.org/2000/svg">
<path d="M25.75 19.5V9.5M25.75 9.5H15.75M25.75 9.5L10.75 24.5M34.5 12L40.942 8.1348C42.9247 6.94508 43.9163 6.35023 44.732 6.42628C45.4433 6.49258 46.0922 6.86 46.515 7.43582C47 8.0962 47 9.25238 47 11.5648V22.4352C47 24.7475 47 25.9037 46.515 26.5642C46.0922 27.14 45.4433 27.5075 44.732 27.5737C43.9163 27.6497 42.9247 27.055 40.942 25.8652L34.5 22M10 32H26.5C29.3003 32 30.7005 32 31.77 31.455C32.7107 30.9757 33.4757 30.2108 33.955 29.27C34.5 28.2005 34.5 26.8003 34.5 24V10C34.5 7.19975 34.5 5.7996 33.955 4.73005C33.4757 3.78923 32.7107 3.02432 31.77 2.54497C30.7005 2 29.3003 2 26.5 2H10C7.19975 2 5.7996 2 4.73005 2.54497C3.78923 3.02432 3.02432 3.78923 2.54497 4.73005C2 5.7996 2 7.19975 2 10V24C2 26.8003 2 28.2005 2.54497 29.27C3.02432 30.2108 3.78923 30.9757 4.73005 31.455C5.7996 32 7.19972 32 10 32Z" stroke="black" stroke-width="3" stroke-linecap="round" stroke-linejoin="round"/>
</svg>
