<svg width="61" height="61" viewBox="0 0 61 61" fill="none" xmlns="http://www.w3.org/2000/svg">
<path fill-rule="evenodd" clip-rule="evenodd" d="M30.5 15.5C22.2157 15.5 15.5 22.2157 15.5 30.5C15.5 38.7841 22.2157 45.5 30.5 45.5C38.7841 45.5 45.5 38.7841 45.5 30.5C45.5 22.2157 38.7841 15.5 30.5 15.5ZM23 30.5C23 26.3579 26.3579 23 30.5 23C34.6421 23 38 26.3579 38 30.5C38 34.6421 34.6421 38 30.5 38C26.3579 38 23 34.6421 23 30.5Z" fill="black"/>
<path fill-rule="evenodd" clip-rule="evenodd" d="M30.5 0.5C13.9314 0.5 0.5 13.9314 0.5 30.5C0.5 47.0686 13.9314 60.5 30.5 60.5C47.0686 60.5 60.5 47.0686 60.5 30.5C60.5 13.9314 47.0686 0.5 30.5 0.5ZM8 30.5C8 18.0736 18.0736 8 30.5 8C42.9264 8 53 18.0736 53 30.5C53 42.9264 42.9264 53 30.5 53C18.0736 53 8 42.9264 8 30.5Z" fill="black"/>
</svg>
