<svg width="369" height="369" viewBox="0 0 369 369" fill="none" xmlns="http://www.w3.org/2000/svg">
<circle cx="184.5" cy="184.5" r="184.5" fill="white"/>
<mask id="mask0_113_43" style="mask-type:alpha" maskUnits="userSpaceOnUse" x="40" y="40" width="145" height="145">
<circle cx="112.5" cy="112.5" r="72.5" fill="#FDC856"/>
</mask>
<g mask="url(#mask0_113_43)">
<rect x="112.5" y="-19.074" width="86.821" height="271.204" fill="#FDC856"/>
</g>
<mask id="mask1_113_43" style="mask-type:alpha" maskUnits="userSpaceOnUse" x="185" y="39" width="145" height="145">
<circle cx="257.5" cy="111.5" r="72.5" transform="rotate(90 257.5 111.5)" fill="#F2B739"/>
</mask>
<g mask="url(#mask1_113_43)">
<rect x="389.074" y="111.5" width="86.821" height="271.204" transform="rotate(90 389.074 111.5)" fill="#F2B739"/>
</g>
<mask id="mask2_113_43" style="mask-type:alpha" maskUnits="userSpaceOnUse" x="185" y="185" width="145" height="145">
<circle cx="257.5" cy="257.5" r="72.5" transform="rotate(-180 257.5 257.5)" fill="#F1A400"/>
</mask>
<g mask="url(#mask2_113_43)">
<rect x="257.5" y="389.074" width="86.821" height="271.204" transform="rotate(-180 257.5 389.074)" fill="#F1A400"/>
</g>
<mask id="mask3_113_43" style="mask-type:alpha" maskUnits="userSpaceOnUse" x="40" y="185" width="145" height="145">
<circle cx="112.5" cy="257.5" r="72.5" transform="rotate(-90 112.5 257.5)" fill="#FADFA6"/>
</mask>
<g mask="url(#mask3_113_43)">
<rect x="-19.0742" y="257.5" width="86.821" height="271.204" transform="rotate(-90 -19.0742 257.5)" fill="#FADFA6"/>
</g>
</svg>
