<svg width="29" height="29" viewBox="0 0 29 29" fill="none" xmlns="http://www.w3.org/2000/svg">
<path d="M18.4715 17.1251C19.4676 17.1251 20.4415 16.8297 21.2698 16.2763C22.098 15.7228 22.7436 14.9362 23.1249 14.0158C23.5061 13.0955 23.6058 12.0827 23.4115 11.1057C23.2171 10.1286 22.7374 9.23117 22.033 8.52676C21.3286 7.82235 20.4311 7.34264 19.4541 7.1483C18.477 6.95395 17.4643 7.0537 16.544 7.43492C15.6236 7.81614 14.837 8.46172 14.2835 9.29002C13.7301 10.1183 13.4347 11.0921 13.4347 12.0883C13.4347 13.4242 13.9653 14.7053 14.9099 15.6499C15.8545 16.5944 17.1356 17.1251 18.4715 17.1251ZM18.4715 9.06623C19.0692 9.06623 19.6535 9.24348 20.1504 9.57555C20.6474 9.90762 21.0348 10.3796 21.2635 10.9318C21.4922 11.484 21.5521 12.0917 21.4355 12.6779C21.3189 13.2641 21.031 13.8026 20.6084 14.2252C20.1857 14.6479 19.6473 14.9357 19.061 15.0523C18.4748 15.1689 17.8672 15.1091 17.315 14.8803C16.7627 14.6516 16.2908 14.2643 15.9587 13.7673C15.6266 13.2703 15.4494 12.686 15.4494 12.0883C15.4494 11.2868 15.7678 10.5181 16.3345 9.95138C16.9013 9.38463 17.67 9.06623 18.4715 9.06623Z" fill="#495159"/>
<path d="M7.33006 8.05888C8.12701 8.05888 8.90606 7.82255 9.5687 7.37979C10.2313 6.93703 10.7478 6.30772 11.0528 5.57144C11.3578 4.83515 11.4376 4.02497 11.2821 3.24333C11.1266 2.4617 10.7428 1.74372 10.1793 1.1802C9.61578 0.61667 8.8978 0.232903 8.11617 0.0774263C7.33454 -0.0780504 6.52435 0.00174588 5.78807 0.306724C5.05178 0.611703 4.42247 1.12817 3.97971 1.7908C3.53695 2.45344 3.30063 3.23249 3.30063 4.02944C3.30063 5.09811 3.72516 6.12301 4.48082 6.87868C5.23649 7.63435 6.26139 8.05888 7.33006 8.05888ZM7.33006 2.01472C7.72854 2.01472 8.11806 2.13288 8.44938 2.35426C8.7807 2.57564 9.03893 2.8903 9.19142 3.25844C9.34391 3.62658 9.38381 4.03167 9.30607 4.42249C9.22833 4.81331 9.03645 5.1723 8.75469 5.45406C8.47292 5.73582 8.11393 5.92771 7.72312 6.00544C7.3323 6.08318 6.92721 6.04328 6.55907 5.8908C6.19092 5.73831 5.87627 5.48007 5.65489 5.14876C5.43351 4.81744 5.31535 4.42791 5.31535 4.02944C5.31535 3.4951 5.52761 2.98265 5.90544 2.60482C6.28328 2.22698 6.79573 2.01472 7.33006 2.01472Z" fill="#495159"/>
<path d="M23.5082 18.1326H13.4347C12.0988 18.1326 10.8177 18.6632 9.8731 19.6078C8.92852 20.5524 8.39786 21.8335 8.39786 23.1694V28.2062H10.4126V23.1694C10.4126 22.3679 10.731 21.5992 11.2977 21.0324C11.8645 20.4657 12.6331 20.1473 13.4347 20.1473H23.5082C24.3097 20.1473 25.0784 20.4657 25.6452 21.0324C26.2119 21.5992 26.5303 22.3679 26.5303 23.1694V28.2062H28.545V23.1694C28.545 21.8335 28.0144 20.5524 27.0698 19.6078C26.1252 18.6632 24.8441 18.1326 23.5082 18.1326Z" fill="#495159"/>
<path d="M11.4199 9.06616H4.36843C3.29975 9.06616 2.27485 9.49069 1.51918 10.2464C0.763518 11.002 0.338989 12.0269 0.338989 13.0956V17.125H2.35371V13.0956C2.35371 12.5613 2.56597 12.0488 2.9438 11.671C3.32164 11.2931 3.83409 11.0809 4.36843 11.0809H11.4199V9.06616Z" fill="#495159"/>
</svg>
