<svg width="25" height="43" viewBox="0 0 25 43" fill="none" xmlns="http://www.w3.org/2000/svg">
<path d="M4.98 12.1294V6.5625C4.98 2.98875 8.20312 0 12.3038 0C16.3463 0 19.6275 2.98875 19.6275 6.5625V12.1294H4.98ZM24.7275 12.4819V23.6737C22.3256 30.2362 15.2344 31.2319 15.2344 31.2319V38.6737H23.0269V42.0131H1.58062V38.6737H9.43313V31.2319C9.43313 31.2319 2.40188 30.2362 0 23.6737V12.4819L2.87063 11.1337V21.33C2.87063 21.33 3.75 28.185 12.3038 28.185C20.8575 28.185 21.855 21.33 21.855 21.33V11.1337L24.7275 12.4819ZM19.6294 14.0625V19.1025C19.6294 22.6762 16.3481 25.665 12.3056 25.665C8.20312 25.665 4.98187 22.6762 4.98187 19.1025V14.0625H19.6313H19.6294Z" fill="black"/>
</svg>
