<svg width="39" height="39" viewBox="0 0 39 39" fill="none" xmlns="http://www.w3.org/2000/svg">
<circle cx="19.5" cy="19.5" r="19.5" fill="#D8D8D8"/>
<path fill-rule="evenodd" clip-rule="evenodd" d="M27.8572 27.8571C27.4404 27.8571 27.0407 28.0227 26.746 28.3174C26.4513 28.6121 26.2858 29.0118 26.2858 29.4286V32.5714H15.2858C14.869 32.5714 14.4693 32.4059 14.1746 32.1112C13.8799 31.8165 13.7144 31.4168 13.7144 31V10.5714C13.7144 10.1547 13.8799 9.75496 14.1746 9.46026C14.4693 9.16556 14.869 9 15.2858 9H29.4286C29.8454 9 30.2451 9.16556 30.5398 9.46026C30.8345 9.75496 31.0001 10.1547 31.0001 10.5714V27.8571H27.8572ZM27.8572 32.5714V29.4286H31.0001L27.8572 32.5714ZM18.4286 15.2857H26.2858C26.4942 15.2857 26.694 15.3685 26.8414 15.5158C26.9887 15.6632 27.0715 15.863 27.0715 16.0714C27.0715 16.2798 26.9887 16.4797 26.8414 16.627C26.694 16.7744 26.4942 16.8571 26.2858 16.8571H18.4286C18.2203 16.8571 18.0204 16.7744 17.8731 16.627C17.7257 16.4797 17.6429 16.2798 17.6429 16.0714C17.6429 15.863 17.7257 15.6632 17.8731 15.5158C18.0204 15.3685 18.2203 15.2857 18.4286 15.2857ZM18.4286 19.2143H26.2858C26.4942 19.2143 26.694 19.2971 26.8414 19.4444C26.9887 19.5918 27.0715 19.7916 27.0715 20C27.0715 20.2084 26.9887 20.4082 26.8414 20.5556C26.694 20.7029 26.4942 20.7857 26.2858 20.7857H18.4286C18.2203 20.7857 18.0204 20.7029 17.8731 20.5556C17.7257 20.4082 17.6429 20.2084 17.6429 20C17.6429 19.7916 17.7257 19.5918 17.8731 19.4444C18.0204 19.2971 18.2203 19.2143 18.4286 19.2143ZM18.4286 23.1429H26.2858C26.4942 23.1429 26.694 23.2256 26.8414 23.373C26.9887 23.5203 27.0715 23.7202 27.0715 23.9286C27.0715 24.137 26.9887 24.3368 26.8414 24.4842C26.694 24.6315 26.4942 24.7143 26.2858 24.7143H18.4286C18.2203 24.7143 18.0204 24.6315 17.8731 24.4842C17.7257 24.3368 17.6429 24.137 17.6429 23.9286C17.6429 23.7202 17.7257 23.5203 17.8731 23.373C18.0204 23.2256 18.2203 23.1429 18.4286 23.1429Z" fill="#4A90C9"/>
<path fill-rule="evenodd" clip-rule="evenodd" d="M12.1468 10.5852V31.1041C12.1504 31.6168 12.2801 32.1207 12.5243 32.5714H10.5714C10.1547 32.5714 9.75496 32.4059 9.46026 32.1112C9.16556 31.8165 9 31.4168 9 31V10.5714C9 10.1547 9.16556 9.75496 9.46026 9.46026C9.75496 9.16556 10.1547 9 10.5714 9H12.5876C12.3016 9.47948 12.1494 10.0269 12.1468 10.5852Z" fill="#165EA6"/>
</svg>
