<svg width="21" height="15" viewBox="0 0 21 15" fill="none" xmlns="http://www.w3.org/2000/svg">
<path d="M7.624 13.1198C7.38077 13.3424 7.19252 13.4914 7.00015 13.6003C6.05845 14.1332 4.89825 14.1332 3.95656 13.6003C3.60954 13.4038 3.27597 13.0768 2.60883 12.4229C1.94168 11.7689 1.6081 11.4419 1.40777 11.1016C0.864078 10.1785 0.864078 9.04108 1.40777 8.11792C1.6081 7.77778 1.94168 7.45077 2.60883 6.79674L5.47835 3.9837C6.1455 3.32968 6.47907 3.00267 6.82608 2.80627C7.76777 2.27329 8.928 2.27329 9.86969 2.80626C10.2167 3.00267 10.5502 3.32968 11.2174 3.9837C11.8845 4.63771 12.2181 4.96472 12.4185 5.3049C12.9622 6.22805 12.9622 7.36544 12.4185 8.28859C12.3074 8.47716 12.1554 8.66175 11.9283 8.90015M9.07176 6.09985C8.84461 6.33825 8.69263 6.52284 8.58154 6.71141C8.03789 7.63456 8.03789 8.77195 8.58154 9.6951C8.78191 10.0353 9.11549 10.3624 9.78264 11.0163C10.4498 11.6703 10.7834 11.9973 11.1303 12.1937C12.072 12.7267 13.2322 12.7267 14.1739 12.1937C14.521 11.9973 14.8546 11.6703 15.5217 11.0163L18.3912 8.20326C19.0584 7.54923 19.392 7.22222 19.5922 6.88208C20.1359 5.95892 20.1359 4.82153 19.5922 3.89837C19.392 3.55819 19.0584 3.23118 18.3912 2.57717C17.7241 1.92315 17.3905 1.59615 17.0435 1.39974C16.1017 0.866753 14.9416 0.866753 13.9999 1.39974C13.8075 1.50863 13.6193 1.65764 13.376 1.88026" stroke="#3E3E3E" stroke-width="2" stroke-linecap="round"/>
</svg>
