<svg width="39" height="39" viewBox="0 0 39 39" fill="none" xmlns="http://www.w3.org/2000/svg">
<circle cx="19.5" cy="19.5" r="19.5" fill="#D8D8D8"/>
<path fill-rule="evenodd" clip-rule="evenodd" d="M10.9274 9.30951C11.3386 9.72162 11.338 10.3891 10.9259 10.8004C8.56637 13.1552 7.10843 16.4081 7.10843 20.0034C7.10843 23.6409 8.60068 26.9278 11.0091 29.2888C11.4248 29.6964 11.4315 30.3638 11.0239 30.7796C10.6163 31.1954 9.94886 31.202 9.53309 30.7943C6.73684 28.0532 5 24.2302 5 20.0034C5 15.8256 6.69688 12.0422 9.43647 9.30803C9.84857 8.89675 10.5161 8.89741 10.9274 9.30951ZM29.4106 9.41126C29.8264 9.00367 30.4938 9.01031 30.9014 9.42608C33.5722 12.1505 35.2209 15.8855 35.2209 20.0034C35.2209 24.1704 33.5329 27.945 30.8058 30.6774C30.3945 31.0895 29.727 31.0902 29.315 30.6789C28.9029 30.2677 28.9022 29.6001 29.3135 29.188C31.6621 26.8347 33.1124 23.5894 33.1124 20.0034C33.1124 16.4594 31.6959 13.2484 29.3958 10.9021C28.9882 10.4863 28.9948 9.81885 29.4106 9.41126ZM14.9226 13.6606C15.3204 14.0857 15.2983 14.7529 14.8732 15.1507C13.5394 16.3989 12.7309 18.1061 12.7309 19.9784C12.7309 21.8724 13.5584 23.598 14.9203 24.8498C15.3489 25.2438 15.377 25.9107 14.983 26.3394C14.5889 26.7679 13.922 26.7961 13.4934 26.4021C11.7325 24.7833 10.6225 22.5088 10.6225 19.9784C10.6225 17.4775 11.7069 15.2261 13.4326 13.6112C13.8577 13.2134 14.5248 13.2355 14.9226 13.6606ZM25.3715 13.7141C25.774 13.2933 26.4412 13.2785 26.8621 13.6809C28.5449 15.2905 29.5984 17.5135 29.5984 19.9784C29.5984 22.4728 28.5196 24.719 26.8018 26.3329C26.3776 26.7317 25.7103 26.7109 25.3117 26.2865C24.913 25.8622 24.9338 25.1951 25.3581 24.7964C26.6857 23.5491 27.49 21.8459 27.49 19.9784C27.49 18.1328 26.7044 16.4478 25.4046 15.2046C24.9839 14.8021 24.9691 14.1348 25.3715 13.7141Z" fill="#FE0000"/>
<path d="M22.4387 17.8263C23.6978 18.7507 24.3274 19.2129 24.3274 20.0035C24.3274 20.794 23.6978 21.2562 22.4387 22.1807C22.0912 22.4358 21.7464 22.676 21.4296 22.8763C21.1517 23.0519 20.837 23.2336 20.511 23.412C19.255 24.0995 18.6268 24.4432 18.0636 24.0627C17.5002 23.682 17.449 22.8853 17.3467 21.2919C17.3177 20.8413 17.2993 20.3995 17.2993 20.0035C17.2993 19.6074 17.3177 19.1656 17.3467 18.715C17.449 17.1216 17.5002 16.3249 18.0636 15.9443C18.6268 15.5637 19.255 15.9075 20.511 16.595C20.837 16.7733 21.1517 16.955 21.4296 17.1306C21.7464 17.3309 22.0912 17.5711 22.4387 17.8263Z" fill="#FE0000"/>
</svg>
