<svg width="20" height="20" viewBox="0 0 20 20" fill="none" xmlns="http://www.w3.org/2000/svg">
<path fill-rule="evenodd" clip-rule="evenodd" d="M17.2475 14.8931C16.0506 14.495 14.7638 14.1975 13.4094 14.005C13.5938 12.9219 13.6919 11.7869 13.7231 10.625H18.7263C18.6144 12.2006 18.085 13.6587 17.2475 14.8931ZM12.1463 18.4744C12.5625 17.4688 12.9031 16.3819 13.165 15.2369C14.2887 15.4031 15.3662 15.6488 16.3869 15.9713C15.2594 17.1731 13.7956 18.0575 12.1463 18.4744ZM10.6069 18.7194C10.4056 18.7337 10.205 18.75 10 18.75C9.795 18.75 9.595 18.7337 9.39313 18.7194C8.86125 17.6119 8.43063 16.3794 8.11188 15.0713C8.73313 15.0169 9.3625 14.985 10 14.985C10.6375 14.985 11.2669 15.0169 11.8888 15.0713C11.5694 16.3794 11.1387 17.6119 10.6069 18.7194ZM3.61313 15.9713C4.63375 15.6488 5.71125 15.4031 6.835 15.2369C7.09688 16.3819 7.4375 17.4688 7.85375 18.4744C6.20437 18.0575 4.74125 17.1731 3.61313 15.9713ZM2.7525 14.8931C1.915 13.6587 1.38562 12.2006 1.27375 10.625H6.27687C6.30812 11.7869 6.40625 12.9219 6.59062 14.005C5.23625 14.1975 3.94938 14.495 2.7525 14.8931ZM2.7525 5.10689C3.94938 5.50501 5.23625 5.80311 6.59062 5.99499C6.40625 7.07811 6.30812 8.21313 6.27687 9.375H1.27375C1.38562 7.79938 1.915 6.34126 2.7525 5.10689ZM7.85375 1.52561C7.4375 2.53124 7.09688 3.61811 6.835 4.76311C5.71125 4.59748 4.63375 4.35124 3.61313 4.02874C4.74125 2.82686 6.20437 1.94249 7.85375 1.52561ZM9.39313 1.28063C9.595 1.26688 9.795 1.25 10 1.25C10.205 1.25 10.4056 1.26688 10.6069 1.28063C11.1387 2.38813 11.5694 3.62124 11.8888 4.92874C11.2669 4.98312 10.6375 5.01499 10 5.01499C9.3625 5.01499 8.73313 4.98312 8.11188 4.92874C8.43063 3.62124 8.86125 2.38813 9.39313 1.28063ZM12.4712 10.625C12.4375 11.7256 12.3375 12.8081 12.1494 13.8475C11.4456 13.7863 10.73 13.75 10 13.75C9.27 13.75 8.55437 13.7863 7.85125 13.8475C7.6625 12.8081 7.5625 11.7256 7.52937 10.625H12.4712ZM7.52937 9.375C7.5625 8.27437 7.6625 7.19187 7.85125 6.1525C8.55437 6.21375 9.27 6.25 10 6.25C10.73 6.25 11.4456 6.21375 12.1488 6.1525C12.3375 7.19187 12.4375 8.27437 12.4712 9.375H7.52937ZM16.3869 4.02874C15.3662 4.35124 14.2887 4.59748 13.165 4.76311C12.9031 3.61811 12.5625 2.53124 12.1463 1.52561C13.7956 1.94249 15.2594 2.82686 16.3869 4.02874ZM17.2475 5.10689C18.085 6.34126 18.6144 7.79938 18.7263 9.375H13.7231C13.6919 8.21313 13.5938 7.07811 13.4094 5.99499C14.7638 5.80311 16.0506 5.50501 17.2475 5.10689ZM10 0C4.4775 0 0 4.47688 0 10C0 15.5231 4.4775 20 10 20C15.5225 20 20 15.5231 20 10C20 4.47688 15.5225 0 10 0Z" fill="#666666"/>
</svg>
