<svg width="19" height="19" viewBox="0 0 19 19" fill="none" xmlns="http://www.w3.org/2000/svg">
<path d="M9.5 9.05331C10.6548 9.05331 11.7622 8.57639 12.5788 7.72748C13.3953 6.87857 13.854 5.7272 13.854 4.52665C13.854 3.32611 13.3953 2.17474 12.5788 1.32583C11.7622 0.476914 10.6548 0 9.5 0C8.34524 0 7.23778 0.476914 6.42124 1.32583C5.6047 2.17474 5.14598 3.32611 5.14598 4.52665C5.14598 5.7272 5.6047 6.87857 6.42124 7.72748C7.23778 8.57639 8.34524 9.05331 9.5 9.05331ZM9.5 11.0421C3.71105 11.0421 0 14.3634 0 15.9804V19H19V15.9804C19 14.0249 15.4867 11.0421 9.5 11.0421Z" fill="#666666"/>
</svg>
